HIERARCHY
ROOT Hips
{
	OFFSET 0.000000 0.000000 0.000000
	CHANNELS 6 Xposition Yposition Zposition Yrotation Xrotation Zrotation
	JOINT Chest
	{
		OFFSET 0.000000 10.149404 -1.127712
		CHANNELS 6 Xposition Yposition Zposition Yrotation Xrotation Zrotation
		JOINT Chest2
		{
			OFFSET 0.000000 11.268527 0.000000
			CHANNELS 6 Xposition Yposition Zposition Yrotation Xrotation Zrotation
			JOINT Chest3
			{
				OFFSET 0.000000 10.288218 -0.001079
				CHANNELS 6 Xposition Yposition Zposition Yrotation Xrotation Zrotation
				JOINT Chest4
				{
					OFFSET 0.000000 10.276731 -0.001080
					CHANNELS 6 Xposition Yposition Zposition Yrotation Xrotation Zrotation
					JOINT Neck
					{
						OFFSET 0.000000 14.388412 0.000000
						CHANNELS 6 Xposition Yposition Zposition Yrotation Xrotation Zrotation
						JOINT Head
						{
							OFFSET 0.000000 9.567978 0.002321
							CHANNELS 6 Xposition Yposition Zposition Yrotation Xrotation Zrotation
							End Site
							{
								OFFSET 0.000000 17.765411 0.000312
							}
						}
					}
					JOINT RightCollar
					{
						OFFSET -3.132497 8.066086 0.000000
						CHANNELS 6 Xposition Yposition Zposition Yrotation Xrotation Zrotation
						JOINT RightShoulder
						{
							OFFSET -14.645328 0.000000 0.000000
							CHANNELS 6 Xposition Yposition Zposition Yrotation Xrotation Zrotation
							JOINT RightElbow
							{
								OFFSET 0.000000 -31.323030 0.000000
								CHANNELS 6 Xposition Yposition Zposition Yrotation Xrotation Zrotation
								JOINT RightWrist
								{
									OFFSET 0.000000 -25.610935 0.000000
									CHANNELS 6 Xposition Yposition Zposition Yrotation Xrotation Zrotation
									End Site
									{
										OFFSET 0.000000 -19.138220 0.000000
									}
								}
							}
						}
					}
					JOINT LeftCollar
					{
						OFFSET 3.132497 8.066086 0.000000
						CHANNELS 6 Xposition Yposition Zposition Yrotation Xrotation Zrotation
						JOINT LeftShoulder
						{
							OFFSET 14.645328 0.000000 0.000000
							CHANNELS 6 Xposition Yposition Zposition Yrotation Xrotation Zrotation
							JOINT LeftElbow
							{
								OFFSET 0.000000 -31.323030 0.000000
								CHANNELS 6 Xposition Yposition Zposition Yrotation Xrotation Zrotation
								JOINT LeftWrist
								{
									OFFSET 0.000000 -25.610935 0.000000
									CHANNELS 6 Xposition Yposition Zposition Yrotation Xrotation Zrotation
									End Site
									{
										OFFSET 0.000000 -19.138220 0.000000
									}
								}
							}
						}
					}
				}
			}
		}
	}
	JOINT RightHip
	{
		OFFSET -8.349073 0.003782 -0.000420
		CHANNELS 6 Xposition Yposition Zposition Yrotation Xrotation Zrotation
		JOINT RightKnee
		{
			OFFSET 0.000000 -43.250797 -0.000255
			CHANNELS 6 Xposition Yposition Zposition Yrotation Xrotation Zrotation
			JOINT RightAnkle
			{
				OFFSET 0.000000 -42.243721 -0.000429
				CHANNELS 6 Xposition Yposition Zposition Yrotation Xrotation Zrotation
				JOINT RightToe
				{
					OFFSET 0.000000 -7.531273 17.111912
					CHANNELS 6 Xposition Yposition Zposition Yrotation Xrotation Zrotation
					End Site
					{
						OFFSET 0.000000 -1.639313 7.141665
					}
				}
			}
		}
	}
	JOINT LeftHip
	{
		OFFSET 8.349073 0.001501 -0.000167
		CHANNELS 6 Xposition Yposition Zposition Yrotation Xrotation Zrotation
		JOINT LeftKnee
		{
			OFFSET 0.000000 -43.250797 -0.000255
			CHANNELS 6 Xposition Yposition Zposition Yrotation Xrotation Zrotation
			JOINT LeftAnkle
			{
				OFFSET 0.000000 -42.243713 -0.000429
				CHANNELS 6 Xposition Yposition Zposition Yrotation Xrotation Zrotation
				JOINT LeftToe
				{
					OFFSET 0.000000 -7.531273 17.111912
					CHANNELS 6 Xposition Yposition Zposition Yrotation Xrotation Zrotation
					End Site
					{
						OFFSET 0.000000 -1.639313 7.141665
					}
				}
			}
		}
	}
}
MOTION
Frames: 7
Frame Time: 0.008333
0.635609 10.256495 14.737207 0.000004 -0.000032 -0.000006 -0.000000 10.149402 -1.127711 -0.000002 0.000027 0.000011 -0.000000 11.268529 0.000001 -0.000002 -0.000005 -0.000010 0.000000 10.288212 -0.001079 0.000004 -0.000007 0.000012 0.000000 10.276730 -0.001080 -0.571793 6.265848 -0.087062 0.000000 14.388408 -0.000001 0.565668 -6.266384 0.024792 -0.000000 9.567978 0.002321 -0.000004 -0.000013 0.000013 -3.132497 8.066091 -0.000001 0.565676 -6.266389 0.024796 -14.645328 -0.000005 -0.000000 -0.000017 0.000004 0.000003 -0.000005 -31.323030 -0.000001 0.000008 -0.000003 0.000014 -0.000002 -25.610935 -0.000000 -0.000065 0.000012 0.000017 3.132497 8.066086 -0.000001 0.565655 -6.266392 0.024807 14.645329 -0.000005 0.000001 0.000012 0.000003 -0.000030 -0.000001 -31.323036 -0.000001 -0.000010 0.000002 0.000010 -0.000003 -25.610935 -0.000001 0.000061 -0.000013 -0.000014 -8.349073 0.003780 -0.000419 -0.000005 0.000017 -0.000002 0.000000 -43.250801 -0.000253 0.000001 -0.000006 -0.000010 0.000000 -42.243713 -0.000425 0.000013 0.000084 0.000010 0.000001 -7.531279 17.111908 -0.000102 -0.000007 0.000001 8.349072 0.001500 -0.000165 -0.000005 0.000019 0.000015 0.000000 -43.250797 -0.000254 0.000001 -0.000003 -0.000004 0.000001 -42.243698 -0.000431 0.000044 0.000038 0.000010 -0.000001 -7.531269 17.111914 -0.000046 -0.000095 -0.000007 
0.635355 10.257383 14.737249 0.000941 -0.008886 0.010971 -0.000000 10.149400 -1.127710 -0.001802 0.008954 0.000160 -0.000000 11.268529 0.000002 0.005026 0.007360 -0.001111 -0.000000 10.288212 -0.001076 0.006737 -0.001554 -0.001111 0.000000 10.276733 -0.001080 -0.571793 6.265848 -0.087062 -0.000000 14.388411 0.000000 0.576890 -6.242651 0.032597 -0.000000 9.567989 0.002321 -0.014489 -0.017622 0.012442 -3.132497 8.066098 0.000001 0.564986 -6.266369 0.026773 -14.645326 0.000005 -0.000001 0.001048 -0.008642 0.003417 -0.000001 -31.323027 -0.000001 0.005645 0.015147 -0.008588 -0.000004 -25.610937 -0.000001 -0.002177 0.001009 0.006861 3.132497 8.066093 0.000001 0.558497 -6.266167 0.019315 14.645330 -0.000005 0.000000 -0.010164 0.023839 -0.026895 -0.000001 -31.323027 -0.000000 -0.003420 -0.045742 0.019320 -0.000002 -25.610935 -0.000000 0.018210 0.006287 -0.072768 -8.349073 0.003780 -0.000418 -0.003105 0.013491 -0.002320 -0.000000 -43.250801 -0.000254 0.000332 -0.013076 0.000837 0.000001 -42.243725 -0.000425 -0.000163 0.007187 -0.011964 0.000001 -7.531271 17.111921 -0.000727 0.004138 0.000149 8.349072 0.001499 -0.000164 -0.003731 0.000243 -0.002179 -0.000002 -43.250797 -0.000254 0.000783 0.007537 0.000556 0.000001 -42.243713 -0.000425 0.010233 -0.005992 -0.007706 -0.000002 -7.531252 17.111917 0.003572 0.013018 0.000329 
0.636540 10.255900 14.737885 -0.002502 0.015800 0.033919 0.000000 10.149409 -1.127712 -0.006510 -0.008168 -0.000324 0.000000 11.268527 0.000000 0.005244 0.005518 -0.003986 -0.000000 10.288221 -0.001078 0.011490 0.013736 -0.002736 0.000000 10.276730 -0.001078 -0.571793 6.265848 -0.087062 0.000000 14.388417 -0.000000 0.529805 -6.285530 0.025690 -0.000000 9.567993 0.002323 0.096102 0.018622 0.025313 -3.132497 8.066094 -0.000001 0.599105 -6.268203 -0.029260 -14.645327 0.000008 -0.000000 -0.021442 0.005490 0.055279 -0.000002 -31.323029 -0.000001 -0.003103 -0.016974 -0.021725 -0.000004 -25.610935 0.000000 0.072842 -0.004520 0.080101 3.132496 8.066095 -0.000002 0.567008 -6.266225 0.014954 14.645327 0.000001 0.000001 -0.018138 -0.004196 -0.044332 -0.000002 -31.323030 0.000001 0.001571 -0.002124 -0.005809 -0.000002 -25.610937 -0.000002 -0.000516 0.004021 -0.038209 -8.349072 0.003785 -0.000420 0.001341 0.004465 0.017886 -0.000000 -43.250801 -0.000256 0.000622 -0.024547 0.001575 -0.000001 -42.243721 -0.000433 0.034764 0.024177 -0.043720 0.000001 -7.531261 17.111916 0.005269 -0.035691 -0.001283 8.349072 0.001503 -0.000168 0.009617 -0.004876 -0.077215 0.000001 -43.250797 -0.000252 -0.003300 -0.031850 -0.002301 0.000000 -42.243690 -0.000437 0.009793 0.009330 0.038065 -0.000002 -7.531282 17.111912 -0.001589 -0.005687 -0.000150 
0.636456 10.257976 14.739113 -0.007732 -0.024317 0.070559 -0.000000 10.149402 -1.127712 0.006602 0.011370 -0.002780 0.000000 11.268529 -0.000001 0.010846 0.034093 -0.001915 -0.000000 10.288225 -0.001079 0.003695 0.022769 -0.000378 -0.000000 10.276726 -0.001080 -0.571793 6.265847 -0.087062 0.000000 14.388405 0.000000 0.515955 -6.260661 0.024781 -0.000000 9.567991 0.002318 0.129824 -0.017150 0.031735 -3.132497 8.066094 0.000000 0.587470 -6.267429 -0.017906 -14.645325 -0.000001 -0.000000 -0.006545 -0.021951 -0.031613 -0.000002 -31.323030 0.000001 0.021025 0.088776 0.068666 0.000002 -25.610933 -0.000001 0.068786 -0.009267 0.022852 3.132497 8.066083 0.000001 0.588377 -6.265622 -0.041295 14.645328 -0.000001 0.000001 -0.057662 -0.029815 -0.047542 -0.000002 -31.323032 -0.000001 0.007699 0.061635 -0.038309 -0.000002 -25.610935 -0.000000 -0.041101 0.009366 -0.063557 -8.349072 0.003780 -0.000420 0.009991 0.040072 -0.026508 -0.000000 -43.250801 -0.000254 0.000468 -0.018462 0.001191 0.000001 -42.243717 -0.000433 -0.039632 0.018156 -0.015319 0.000001 -7.531249 17.111912 0.002219 -0.015420 -0.000553 8.349072 0.001500 -0.000167 0.007915 0.045167 -0.005141 0.000001 -43.250809 -0.000256 -0.008871 -0.085623 -0.006203 -0.000002 -42.243710 -0.000428 -0.037753 0.077144 -0.061446 -0.000001 -7.531260 17.111910 -0.024408 -0.088360 -0.002252 
0.635482 10.259247 14.738310 -0.002479 -0.027115 0.070319 0.000000 10.149402 -1.127712 -0.001505 0.026951 -0.006283 0.000000 11.268527 0.000001 0.019906 0.034229 -0.014289 -0.000000 10.288218 -0.001078 0.020133 0.007362 -0.008187 0.000000 10.276741 -0.001081 -0.571793 6.265848 -0.087062 -0.000000 14.388395 -0.000001 0.489471 -6.245224 0.026817 -0.000000 9.567980 0.002319 0.178149 -0.030161 0.047263 -3.132497 8.066077 -0.000001 0.586926 -6.268277 0.034547 -14.645328 0.000009 -0.000000 -0.019420 -0.038685 -0.051285 -0.000001 -31.323034 0.000001 0.007928 0.047179 0.068271 0.000002 -25.610935 -0.000000 0.042384 -0.006635 0.005048 3.132497 8.066085 -0.000001 0.572889 -6.265903 -0.010840 14.645329 0.000001 -0.000000 -0.076242 0.000486 -0.071162 0.000003 -31.323034 0.000001 0.005966 0.012766 -0.024831 0.000004 -25.610935 -0.000000 -0.041321 0.012962 -0.098643 -8.349073 0.003782 -0.000420 0.000006 0.036623 -0.037748 -0.000000 -43.250797 -0.000255 0.000395 -0.015569 0.000988 -0.000000 -42.243713 -0.000428 -0.017440 0.014342 -0.019900 0.000001 -7.531283 17.111916 0.000597 -0.004662 -0.000166 8.349074 0.001502 -0.000167 -0.001382 0.027457 -0.015027 0.000001 -43.250790 -0.000255 -0.004924 -0.047525 -0.003449 0.000000 -42.243706 -0.000425 -0.028323 0.057819 -0.054554 -0.000002 -7.531263 17.111916 -0.019702 -0.071302 -0.001821 
0.635270 10.260432 14.738013 -0.004625 -0.023937 0.071465 0.000000 10.149402 -1.127713 -0.000218 0.036354 -0.007998 -0.000000 11.268527 0.000002 0.023393 0.036143 -0.017434 -0.000000 10.288215 -0.001079 0.021973 -0.000123 -0.009867 -0.000000 10.276737 -0.001079 -0.571793 6.265848 -0.087062 0.000000 14.388411 -0.000001 0.499886 -6.250068 0.039773 0.000000 9.567982 0.002322 0.187291 -0.017639 0.076569 -3.132497 8.066087 -0.000001 0.591655 -6.268926 0.049863 -14.645332 0.000014 -0.000002 -0.015393 -0.042983 -0.048094 0.000001 -31.323030 -0.000001 0.012639 0.055195 0.046739 0.000002 -25.610937 0.000000 0.048781 -0.005654 0.026412 3.132497 8.066084 -0.000001 0.572990 -6.266044 -0.000620 14.645327 -0.000002 0.000001 -0.085221 -0.004338 -0.087720 -0.000004 -31.323032 -0.000001 0.004425 0.025273 -0.020591 -0.000001 -25.610931 -0.000000 -0.040833 0.015440 -0.123687 -8.349073 0.003782 -0.000421 0.000017 0.026722 -0.025629 0.000000 -43.250797 -0.000256 0.000238 -0.009384 0.000592 -0.000001 -42.243729 -0.000431 -0.014114 0.007091 -0.037339 0.000002 -7.531256 17.111906 -0.000876 0.005141 0.000185 8.349072 0.001501 -0.000167 0.000753 0.007329 -0.041661 -0.000002 -43.250797 -0.000253 -0.002086 -0.020144 -0.001460 -0.000000 -42.243694 -0.000433 -0.002388 0.034199 -0.028260 -0.000002 -7.531279 17.111910 -0.012547 -0.045384 -0.001164 
0.634804 10.261873 14.738096 -0.004445 -0.014403 0.069197 0.000000 10.149405 -1.127710 0.008651 0.036255 -0.003728 -0.000000 11.268530 0.000002 0.019957 0.034817 -0.003945 0.000000 10.288223 -0.001080 0.010692 -0.001375 -0.002035 -0.000000 10.276730 -0.001081 -0.571793 6.265848 -0.087062 0.000000 14.388414 -0.000000 0.494637 -6.240909 0.037680 0.000000 9.568004 0.002319 0.218849 -0.020038 0.079822 -3.132497 8.066090 0.000000 0.603095 -6.269867 0.047223 -14.645326 -0.000000 0.000001 -0.006763 -0.035716 -0.060803 -0.000001 -31.323032 -0.000001 0.032169 0.112371 0.031747 0.000002 -25.610939 -0.000001 0.036392 -0.001258 0.050749 3.132497 8.066092 0.000001 0.589397 -6.265803 -0.032286 14.645325 -0.000001 -0.000002 -0.104416 -0.009594 -0.097575 0.000005 -31.323032 -0.000001 0.005904 0.066618 -0.032029 -0.000001 -25.610935 -0.000002 -0.087613 0.024895 -0.185864 -8.349073 0.003781 -0.000419 -0.005594 0.012245 0.009613 -0.000000 -43.250793 -0.000253 0.000246 -0.009683 0.000606 -0.000001 -42.243710 -0.000432 -0.003613 0.012325 -0.067820 0.000001 -7.531268 17.111919 0.002829 -0.019474 -0.000699 8.349074 0.001499 -0.000166 -0.000920 -0.008950 -0.056428 0.000000 -43.250793 -0.000253 -0.001778 -0.017167 -0.001245 -0.000002 -42.243721 -0.000429 0.001716 0.031987 -0.014450 0.000000 -7.531272 17.111912 -0.009008 -0.032575 -0.000838 
